<?xml version="1.0" standalone="no"?>
<!DOCTYPE svg PUBLIC "-//W3C//DTD SVG 20010904//EN"
 "http://www.w3.org/TR/2001/REC-SVG-20010904/DTD/svg10.dtd">
<svg version="1.0" xmlns="http://www.w3.org/2000/svg"
 width="512.000000pt" height="512.000000pt" viewBox="0 0 512.000000 512.000000"
 preserveAspectRatio="xMidYMid meet">
<metadata>
Created by potrace 1.14, written by Peter Selinger 2001-2017
</metadata>
<g transform="translate(0.000000,512.000000) scale(0.100000,-0.100000)"
fill="#000000" stroke="none">
<path d="M1850 5106 c-87 -39 -131 -107 -132 -206 -1 -54 -3 -60 -22 -61 -12
0 -68 -1 -126 -3 -121 -3 -149 -14 -205 -78 l-36 -43 -402 -5 c-387 -5 -403
-6 -442 -26 -51 -28 -91 -68 -119 -119 l-21 -40 0 -2170 0 -2170 22 -40 c28
-53 78 -99 133 -124 45 -20 58 -20 1676 -21 1209 0 1640 3 1665 12 79 27 150
99 170 172 16 54 19 1734 4 1780 -6 18 -22 36 -37 44 -28 13 -28 14 -28 110
l0 97 153 241 c83 133 157 249 162 258 19 31 229 361 280 441 227 354 235 369
231 454 -3 68 -28 136 -64 178 -24 27 -179 128 -229 149 -71 30 -180 17 -248
-29 -45 -31 -68 -59 -111 -129 -21 -35 -69 -110 -106 -168 l-68 -105 0 110 0
110 30 13 c18 9 33 24 37 40 4 15 7 185 7 377 -1 330 -2 353 -21 395 -27 59
-68 103 -123 132 -45 23 -49 23 -447 26 l-403 3 -11 22 c-16 29 -53 63 -92 84
-25 13 -60 17 -154 17 l-123 1 -1 35 c-2 104 -22 155 -78 201 -20 16 -53 34
-73 39 -52 15 -616 11 -648 -4z"/>
</g>
</svg>
